# xmcd
#
# Track frame offsets:
#	150
#	12485
#	22174
#	36441
#	49133
#	62760
#	73453
#	86744
#	99151
#	112342
#	124908
#	132375
#	144759
#	159018
#
# Disc length: 2257 seconds
#
# Revision: 1
# Processed by: cddbd v1.5.2PL0 Copyright (c) Steve Scherf et al.
# Submitted via: audiograbber 1.83.01
#
DISCID=cb08cf0e
DTITLE=Neue Böhmische Blasmusik - Beliebte Stars der Volksmusik
DYEAR=1900
DGENRE=
TTITLE0=Alte Kameraden
TTITLE1=Am alten Dorfbrunnen
TTITLE2=Biermarsch
TTITLE3=Blasmusik nach Herzenslust
TTITLE4=Das ist Schwung für alt und jung
TTITLE5=Drei weiße Birken
TTITLE6=Sonnengrüße
TTITLE7=Euch allen zur Freude
TTITLE8=Hand auf`s Herz
TTITLE9=Immer wieder Blasmusik
TTITLE10=Klarinettenmuckl
TTITLE11=Radetzky-Marsch
TTITLE12=Tief drin im Böhmerwald
TTITLE13=Wien bleibt Wien
EXTD=
EXTT0=
EXTT1=
EXTT2=
EXTT3=
EXTT4=
EXTT5=
EXTT6=
EXTT7=
EXTT8=
EXTT9=
EXTT10=
EXTT11=
EXTT12=
EXTT13=
PLAYORDER=
